@startuml

' STATIC
' Generated by CTP - https://github.com/samuelroland/ctp

' Style
hide empty members
skinparam classAttributeIconSize 0

' Additions
remove Main

' REMOVE
'#General remove diagrams

'Delete subclasses prefix ending in $
' ([A-Z][a-z]+){1,4}\$

'Missing links with associated deletions
Entity -> Cell: initial >
Cell "1"-left"*" Entity: occupants >
' \t- initialCell:.*\n
' \t- cell: Cell\n
' \t- occupants:.*\n

Cell "*"-"*" Cell: neighbors >
' \t- neighbors:.*\n

Entity "1"-left>"1" Direction: direction >
' \t- direction: Direction\n

Board "1"-d->"*" Cell: cells >
LevelBuilder "1"-d->"*" Cell: cells >
' \t- cells: Cell\[\]\[\]

LevelBuilder "1"-d>"*" Ghost: ghosts >
' \t- ghosts: .*\n

LevelBuilder "1"-d>"*" Player: players >
Level "1"-d>"*" Player: players >
' \t- players: .*\n

Player "1"-"1" PlayerVisitor: handler >
' \t- handler: PlayerVisitor\n

Player "1"-"1" Direction: requestedDirection >
' \t- requestedDirection: Direction\n

Direction "1"-"1" Vector: direction >
' \t- direction: Vector\n

StormTrooper "1"-u-"1" InteractionVisitor: handler >
BobaFett "1"-u-"1" InteractionVisitor: handler >
Sith "1"-u-"1" InteractionVisitor: handler >
Luke "1"-u-"1" InteractionVisitor: handler >
Vader "1"-u-"1" InteractionVisitor: handler >
' \t- handler: InteractionVisitor\n

AnimatedSprite "1"-"*" Sprite: frames >
' \t- frames:.*\n

PlayerDeadVisitor "1"-"1" AnimatedSprite: deathSprites >
' \t- deathSprites: AnimatedSprite

SpriteRegister "1"-"*" Sprite: spriteCache >
' \t- spriteCache:.*\n

Ghost "1"-"*" Direction: pathToTarget >
' \t- pathToTarget:.*\n

GameFrame "1"--"1" LevelPanel: panel >
' \t- panel: LevelPanel\n

LevelPanel "1"-"1" Level: level >
GameWindow "1"-"1" Player: player >
GameWindow "1"-"1" Level: level >
GameWindow "1"-"1" GameFrame: frame >
' \t- player: Player\n
' \t- level: Level\n
' \t- frame: GameFrame\n

StormTrooper "1"-"*" AnimatedSprite: teleportSprite >
' \t- teleportSprite:.*\n

SpeechBubble "1"-"1" Sprite: sprite >
' \t- sprite: Sprite\n

PlayerVisitor "1"-"1" Player: player >
' \t- player: Player

Level "1"-"*" LevelObserver: observers >
' \t- observers: List<LevelObserver>\n

Node "1"-"1" Direction: direction >
Node "1"-"1" Cell: cell >
Node "1"-"0..1" Node: parent >
' \t~ direction: Direction\n
' \t~ cell: Cell\n
' \t~ parent: Node\n

PlayerVisitor "1"-"1" AnimatedSprite: sprites >
' \t- sprites: Map<Direction,AnimatedSprite>

' ENDSTATIC
class PlayerInvincibleVisitor {
	- {static} INVINCIBLE_DURATION: int
	- {static} EXECUTOR: ScheduledExecutorService
	- endFuture: ScheduledFuture<?>
	- blinkFuture: ScheduledFuture<?>
	+ isScary(): boolean
	+ isInteractable(): boolean
	+ eatSuperPellet(): void
	+ kill(): void
	+ dispose(): void
	+ startTimer(): void
	+ endInvincibility(): void
	+ visit(vader: Vader): void
	+ visit(luke: Luke): void
	+ visit(sith: Sith): void
	+ visit(stormTrooper: StormTrooper): void
	+ visit(bobaFett: BobaFett): void
}


class GroundCell {
	+ isWalkableBy(_any: Entity): boolean
	+ getSprite(): Sprite
}

class StormTrooper {
	- {static} EDIBLE_SPRITES: Map<Direction,AnimatedSprite>
	- {static} INVINCIBLE_SPRITES: Map<Direction,AnimatedSprite>
	- teleporting: boolean
	~ getEdibleSprites(): Map<Direction,AnimatedSprite>
	~ getInvincibleSprites(): Map<Direction,AnimatedSprite>
	+ accept(v: InteractionVisitor): void
	+ interactWith(other: Interactable): void
	+ teleportRandomly(): void
	- isNearPlayer(cell: Cell): boolean
	+ triggerTeleport(): void
	+ getSprite(): Sprite
	+ hasSpecialRendering(): boolean
	+ renderSpecial(g: Graphics2D, x: int, y: int, width: int, height: int): void
	+ toString(): String
}


class StormTrooperInteractionVisitor {
}
class PlayerDeadVisitor {

	+ isScary(): boolean
	+ isInteractable(): boolean
	+ eatSuperPellet(): void
	+ kill(): void
	+ getSprite(): Sprite
}


class SuperPellet {
	+ getSprite(): Sprite
	+ accept(v: InteractionVisitor): void
}

class Main {
	+ {static} main(args: String[]): void
}

abstract class Cell {
	+ getNeighbor(direction: Direction): Cell
	+ linkNeighbor(direction: Direction, cell: Cell): void
	+ getOccupants(): Collection<Entity>
	+ addOccupant(entity: Entity): void
	+ removeOccupant(entity: Entity): void
	+ {abstract}isWalkableBy(entity: Entity): boolean
	+ {abstract}getSprite(): Sprite
}


class PlayerNormalVisitor {
	+ isScary(): boolean
	+ isInteractable(): boolean
	+ eatSuperPellet(): void
	+ kill(): void
	+ visit(bobaFett: BobaFett): void
}

class Level {
	- moveLock: Object
	- startLock: Object
	- board: Board
	- entityThreads: Map<MovableEntity,ScheduledExecutorService>
	- running: boolean
	+ getBoard(): Board
	+ getPlayer(index: int): Player
	+ isRunning(): boolean
	+ move(entity: MovableEntity, direction: Direction): void
	+ start(): void
	+ stop(): void
	- startThreads(): void
	- stopThreads(): void
	- updateObservers(): void
	+ addObserver(observer: LevelObserver): void
	+ removeObserver(observer: LevelObserver): void
	+ hasAlivePlayer(): boolean
	+ hasScaryPlayer(): boolean
	+ toggleBlinking(): void
	+ countRemainingPellets(): long
}


class EntityTask {
	- entity: MovableEntity
	+ run(): void
}


interface LevelObserver {
	+ onLevelWon(): void
	+ onLevelLost(): void
}

abstract class Ghost {
	- pathIndex: int
	- moveCounter: int
	- blinking: boolean
	- goingHome: boolean
	- pathUpdateInterval: int
	~ {abstract}getEdibleSprites(): Map<Direction,AnimatedSprite>
	~ {abstract}getInvincibleSprites(): Map<Direction,AnimatedSprite>
	+ getSprite(): Sprite
	+ toggleBlinking(): void
	+ getMoveInterval(): int
	+ getNextMove(): Direction
	+ sendHome(): void
	- updatePathTo(target: Cell): void
	- updatePathToHome(): void
	- updatePathToPlayer(): void
	+ getLayer(): int
}


class GhostInteractionVisitor {
	+ visit(player: Player): void
}

class SpeechBubble {
	- text: String
	+ getSprite(): Sprite
	+ getLayer(): int
	+ accept(v: InteractionVisitor): void
}


class SpeechBubbleSprite {
	- {static} OPACITY_INTERVAL: int
	- backgroundSprite: Sprite
	- lastUpdate: long
	- opacity: int
	+ draw(graphics: Graphics, x: int, y: int, width: int, height: int): void
	+ slice(roi: RegionOfInterest): Sprite
	+ getWidth(): int
	+ getHeight(): int
}


interface Interactor {
	+ interactWith(other: Interactable): void
}

enum Direction {
	+ UP: 
	+ RIGHT: 
	+ DOWN: 
	+ LEFT: 
	+ dx(): int
	+ dy(): int
	+ opposite(): Direction
	+ toVector(): Vector
	+ {static} fromInt(index: int): Direction
	+ {static} fromVector(v: Vector): Direction
	+ {static} random(): Direction
	+ toString(): String
}


class RandomGenerator {
	- {static} instance: Random
	+ {static} getInstance(): Random
}


interface InteractionVisitor {
	+ visit(player: Player): void
	+ visit(pellet: Pellet): void
	+ visit(pellet: SuperPellet): void
	+ visit(vader: Vader): void
	+ visit(luke: Luke): void
	+ visit(sith: Sith): void
	+ visit(stormTrooper: StormTrooper): void
	+ visit(bobaFett: BobaFett): void
}

class BobaFett {
	- {static} EDIBLE_SPRITES: Map<Direction,AnimatedSprite>
	- {static} INVINCIBLE_SPRITES: Map<Direction,AnimatedSprite>
	- moveInterval: int
	~ getEdibleSprites(): Map<Direction,AnimatedSprite>
	~ getInvincibleSprites(): Map<Direction,AnimatedSprite>
	+ moveFaster(): void
	+ getMoveInterval(): int
	+ accept(v: InteractionVisitor): void
	+ interactWith(other: Interactable): void
	+ toString(): String
}


class BobaFettInteractionVisitor {
	+ visit(superPellet: SuperPellet): void
	+ visit(player: Player): void
}

interface Interactable {
	+ accept(v: InteractionVisitor): void
}

class Pathfinding {
	+ {static} findNearestEntity(entityClass: Class<T>, start: Cell): T
	+ {static} findShortestPath(start: Cell, target: Cell, entity: Entity): List<Direction>
}

class Node {
	~ getPath(): List<Direction>
}


class DefaultSprite {
	+ draw(graphics: Graphics, x: int, y: int, width: int, height: int): void
	+ slice(roi: RegionOfInterest): Sprite
	+ getWidth(): int
	+ getHeight(): int
}

class WallCell {
	+ isWalkableBy(_any: Entity): boolean
	+ getSprite(): Sprite
}

class Vector {
	- x: float
	- y: float
	+ {static} EPSILON: double
	+ {static} ZERO: Vector
	+ {static} X: Vector
	+ {static} Y: Vector
	+ x(): float
	+ y(): float
	+ getLength(): float
	+ getAngle(): float
	+ opposite(): Vector
	+ add(other: Vector): Vector
	+ add(x: float, y: float): Vector
	+ sub(other: Vector): Vector
	+ sub(x: float, y: float): Vector
	+ mul(other: Vector): Vector
	+ mul(x: float, y: float): Vector
	+ mul(s: float): Vector
	+ div(other: Vector): Vector
	+ div(x: float, y: float): Vector
	+ div(s: float): Vector
	+ dot(other: Vector): float
	+ min(other: Vector): Vector
	+ min(): float
	+ max(other: Vector): Vector
	+ max(): float
	+ normalized(): Vector
	+ resized(length: float): Vector
	+ mirrored(normal: Vector): Vector
	+ rotated(angle: double): Vector
	+ clockwise(): Vector
	+ counterClockwise(): Vector
	+ round(): Vector
	+ mixed(other: Vector, factor: float): Vector
}


class RegionOfInterest {
	- x: int
	- y: int
	- w: int
	- h: int
	+ x1(): int
	+ x2(): int
	+ y1(): int
	+ y2(): int
	+ w(): int
	+ x(): int
	+ h(): int
	+ y(): int
}


class DoorCell {
	+ isWalkableBy(entity: Entity): boolean
	+ getSprite(): Sprite
}

class Pellet {
	+ getLayer(): int
	+ getSprite(): Sprite
	+ accept(v: InteractionVisitor): void
}

class MapParser {
	+ {static} parse(resourcePath: String): Level
	+ {static} parse(inputStream: InputStream): Level
	+ {static} parse(map: char[][]): Level
}

class GameFrame {
	- {static} FRAME_RATE: int
	+ start(): void
}


class KeyListener {
	- keybindings: Map<Integer,Consumer<Level>>
	+ keyPressed(e: KeyEvent): void
}


class Sith {
	- {static} EDIBLE_SPRITES: Map<Direction,AnimatedSprite>
	- {static} INVINCIBLE_SPRITES: Map<Direction,AnimatedSprite>
	~ getEdibleSprites(): Map<Direction,AnimatedSprite>
	~ getInvincibleSprites(): Map<Direction,AnimatedSprite>
	+ accept(v: InteractionVisitor): void
	+ interactWith(other: Interactable): void
	+ toString(): String
}


class SithInteractionVisitor {
	+ visit(stormTrooper: StormTrooper): void
}

abstract class MovableEntity {
	+ {abstract}getMoveInterval(): int
	+ {abstract}getNextMove(): Direction
	+ setCell(cell: Cell): void
}

abstract class AbstractInteractionVisitor {
	+ visit(player: Player): void
	+ visit(pellet: Pellet): void
	+ visit(superPellet: SuperPellet): void
	+ visit(vader: Vader): void
	+ visit(luke: Luke): void
	+ visit(sith: Sith): void
	+ visit(stormTrooper: StormTrooper): void
	+ visit(bobaFett: BobaFett): void
}

class Luke {
	- {static} SPRITES: Map<Direction,AnimatedSprite>
	~ getEdibleSprites(): Map<Direction,AnimatedSprite>
	~ getInvincibleSprites(): Map<Direction,AnimatedSprite>
	+ accept(v: InteractionVisitor): void
	+ interactWith(other: Interactable): void
	+ toString(): String
}


class LukeInteractionVisitor {
}
interface SpecialRender {
	+ renderSpecial(g: Graphics2D, x: int, y: int, width: int, height: int): void
	+ hasSpecialRendering(): boolean
}

abstract class SpriteRegister {
	+ loadSprite(resource: String): Sprite
	+ createAnimation(resource: Sprite, frames: int, delay: int, loop: boolean): AnimatedSprite
	- loadResource(resource: String): Sprite
}


class ButtonPanel {
}
abstract class PlayerVisitor {

	# getPlayer(): Player
	+ getSprite(): Sprite
	# setRedSprites(): void
	+ {abstract}isScary(): boolean
	+ {abstract}isInteractable(): boolean
	+ {abstract}eatSuperPellet(): void
	+ {abstract}kill(): void
	+ dispose(): void
	+ visit(pellet: Pellet): void
	+ visit(superPellet: SuperPellet): void
}


class Player {
	- {static} DEFAULT_INTERVAL: int
	- moveInterval: int
	+ isAlive(): boolean
	+ isScary(): boolean
	+ getSprite(): Sprite
	+ setHandler(handler: PlayerVisitor): void
	+ setRequestedDirection(requestedDirection: Direction): void
	+ getMoveInterval(): int
	+ setMoveInterval(moveInterval: int): void
	+ getNextMove(): Direction
	+ kill(): void
	+ getLayer(): int
	+ accept(v: InteractionVisitor): void
	+ interactWith(other: Interactable): void
	+ toString(): String
}


class ImageSprite {
	- image: Image
	+ draw(graphics: Graphics, x: int, y: int, width: int, height: int): void
	+ slice(roi: RegionOfInterest): Sprite
	+ getWidth(): int
	+ getHeight(): int
}


class Board {

	+ streamCells(): Stream<Cell>
	+ getWidth(): int
	+ getHeight(): int
	+ getCell(x: int, y: int): Cell
	+ withinBounds(x: int, y: int): boolean
	+ {static} create(cells: Cell[][]): Board
}


class LevelPanel {
	+ {static} SQUARE_SIZE: int
	+ getLevel(): Level
	# paintComponent(g: Graphics): void
	- render(board: Board, g: Graphics2D): void
	- renderCell(cell: Cell, g: Graphics2D, x: int, y: int, width: int, height: int): void
}


class GameWindow {
	+ begin(): void
	+ getActiveLevel(): Level
	+ onLevelWon(): void
	+ onLevelLost(): void
	+ {static} getInstance(): GameWindow
}


class InstanceHolder {
	- {static} INSTANCE: GameWindow
}

class Vader {
	- {static} EDIBLE_SPRITES: Map<Direction,AnimatedSprite>
	- {static} INVINCIBLE_SPRITES: Map<Direction,AnimatedSprite>
	~ getEdibleSprites(): Map<Direction,AnimatedSprite>
	~ getInvincibleSprites(): Map<Direction,AnimatedSprite>
	+ accept(v: InteractionVisitor): void
	+ interactWith(other: Interactable): void
	+ toString(): String
}


class VaderInteractionVisitor {
	+ visit(luke: Luke): void
}

interface Sprite {
	+ draw(graphics: Graphics, x: int, y: int, width: int, height: int): void
	+ slice(roi: RegionOfInterest): Sprite
	+ getWidth(): int
	+ getHeight(): int
}

abstract class Entity {
	- {static} SPEECH_DEBOUNCE: int
	- lastSpeech: long
	+ getDirection(): Direction
	+ setDirection(direction: Direction): void
	+ getInitialCell(): Cell
	+ getCell(): Cell
	# setCell(cell: Cell): void
	+ leaveCell(): void
	+ spawnSpeech(text: String): void
	+ {abstract}getLayer(): int
	+ {abstract}getSprite(): Sprite
}


class PacmanSprites {
	- {static} ANIMATION_DELAY: int
	- {static} DIRECTED_ORDER: Direction[]
	- {static} INSTANCE: PacmanSprites
	+ getPacman(): Map<Direction,AnimatedSprite>
	+ getRedPacman(): Map<Direction,AnimatedSprite>
	+ getPacmanDeath(): AnimatedSprite
	+ getTeleport(): AnimatedSprite
	+ getBackground(): Sprite
	+ getPellet(): Sprite
	+ getSuperPellet(): Sprite
	+ getSpeechBackground(): Sprite
	+ getRedGhost(): Map<Direction,AnimatedSprite>
	+ getSith(): Map<Direction,AnimatedSprite>
	+ getEdibleSith(): Map<Direction,AnimatedSprite>
	+ getLuke(): Map<Direction,AnimatedSprite>
	+ getVader(): Map<Direction,AnimatedSprite>
	+ getEdibleVader(): Map<Direction,AnimatedSprite>
	+ getStormTrooper(): Map<Direction,AnimatedSprite>
	+ getEdibleStormTrooper(): Map<Direction,AnimatedSprite>
	+ getBobaFett(): Map<Direction,AnimatedSprite>
	+ getEdibleBobaFett(): Map<Direction,AnimatedSprite>
	- loadDirectedSprites(resource: String, frames: int, spriteWidth: int, \n\t spriteHeight: int): Map<Direction,AnimatedSprite>
	+ {static} getInstance(): PacmanSprites
}


class LevelBuilder {

	+ {static} start(width: int, height: int): LevelBuilder
	+ addWall(x: int, y: int): LevelBuilder
	+ addGround(x: int, y: int): LevelBuilder
	+ addDoor(x: int, y: int): LevelBuilder
	+ addPellet(x: int, y: int): LevelBuilder
	+ addSuperPellet(x: int, y: int): LevelBuilder
	+ addGhost(x: int, y: int, ghostFactory: Function<Cell,Ghost>): LevelBuilder
	+ addPlayer(x: int, y: int): LevelBuilder
	+ build(): Level
}


class AnimatedSprite {
	- {static} ANIMATION_END: Sprite
	- {static} DEFAULT_BLINK_DELAY: int
	- visible: boolean
	- delay: int
	- currentFrame: int
	- looping: boolean
	- animating: boolean
	- blinking: boolean
	- blinkDelay: int
	- lastUpdate: long
	- lastBlink: long
	+ restart(): void
	+ start(): void
	+ stop(): void
	+ isAnimating(): boolean
	+ startBlinking(): void
	+ stopBlinking(): void
	- updateBlinking(): void
	- updateAnimation(): void
	+ draw(graphics: Graphics, x: int, y: int, width: int, height: int): void
	+ slice(roi: RegionOfInterest): Sprite
	+ getWidth(): int
	+ getHeight(): int
	+ getCurrentFrameStep(): int
	- getCurrentFrame(): Sprite
}




PlayerVisitor <|-- PlayerInvincibleVisitor
Cell <|-- GroundCell
SpecialRender <|.. StormTrooper
Ghost <|-- StormTrooper
StormTrooper +-- StormTrooperInteractionVisitor
GhostInteractionVisitor <|-- StormTrooperInteractionVisitor
PlayerVisitor <|-- PlayerDeadVisitor
Pellet <|-- SuperPellet
PlayerVisitor <|-- PlayerNormalVisitor
Level +-- EntityTask
Runnable <|.. EntityTask
Level +-- LevelObserver
Interactor <|.. Ghost
MovableEntity <|-- Ghost
Ghost +-- GhostInteractionVisitor
AbstractInteractionVisitor <|-- GhostInteractionVisitor
Entity <|-- SpeechBubble
SpeechBubble +-- SpeechBubbleSprite
Sprite <|.. SpeechBubbleSprite
Ghost <|-- BobaFett
BobaFett +-- BobaFettInteractionVisitor
GhostInteractionVisitor <|-- BobaFettInteractionVisitor
Pathfinding +-- Node
Sprite <|.. DefaultSprite
Cell <|-- WallCell
Cell <|-- DoorCell
Entity <|-- Pellet
JFrame <|-- GameFrame
GameFrame +-- KeyListener
KeyAdapter <|-- KeyListener
Ghost <|-- Sith
Sith +-- SithInteractionVisitor
GhostInteractionVisitor <|-- SithInteractionVisitor
Entity <|-- MovableEntity
InteractionVisitor <|.. AbstractInteractionVisitor
Ghost <|-- Luke
Luke +-- LukeInteractionVisitor
GhostInteractionVisitor <|-- LukeInteractionVisitor
JPanel <|-- ButtonPanel
AbstractInteractionVisitor <|-- PlayerVisitor
Interactor <|.. Player
MovableEntity <|-- Player
Sprite <|.. ImageSprite
JPanel <|-- LevelPanel
LevelObserver <|.. GameWindow
GameWindow +-- InstanceHolder
Ghost <|-- Vader
Vader +-- VaderInteractionVisitor
GhostInteractionVisitor <|-- VaderInteractionVisitor
Interactable <|.. Entity
SpriteRegister <|-- PacmanSprites
Sprite <|.. AnimatedSprite
@enduml
